<?xml version="1.0" encoding="UTF-8" standalone="no"?><!DOCTYPE svg PUBLIC "-//W3C//DTD SVG 1.1//EN" "http://www.w3.org/Graphics/SVG/1.1/DTD/svg11.dtd"><svg width="100%" height="100%" viewBox="0 0 190 70" version="1.1" xmlns="http://www.w3.org/2000/svg" xmlns:xlink="http://www.w3.org/1999/xlink" xml:space="preserve" xmlns:serif="http://www.serif.com/" style="fill-rule:evenodd;clip-rule:evenodd;stroke-linejoin:round;stroke-miterlimit:2;"><rect id="aleios-alt-dark" x="0" y="0" width="190" height="69.007" style="fill:none;"/><g id="logo-lockup"><g id="name"><path d="M88.112,35.652c1.328,0 2.608,0.572 3.322,1.724c1.201,1.938 0.535,4.831 -1.669,5.696c-0.53,0.208 -1.086,0.295 -1.653,0.295c-0.568,-0 -1.124,-0.087 -1.654,-0.295c-2.204,-0.865 -2.87,-3.758 -1.669,-5.696c0.714,-1.152 1.994,-1.724 3.323,-1.724Zm9.784,-3.804c0,-0.759 -0.609,-1.379 -1.368,-1.391c-3.34,-0.056 -6.68,-0.103 -10.019,-0.081c-3.597,0.024 -6.697,2.269 -7.956,5.621c-1.446,3.853 -0.333,8.574 3.055,11.045c2.829,2.064 8.026,2.504 10.144,-0.87l0.066,-0l0,0.744c0,0.64 0.52,1.16 1.16,1.16l3.759,-0c0.307,-0 0.602,-0.123 0.82,-0.34c0.217,-0.218 0.339,-0.513 0.339,-0.82l0,-15.068Z" style="fill:#1b1b1b;fill-rule:nonzero;"/><path d="M105.898,21.517c-0,-0.64 -0.52,-1.16 -1.16,-1.16l-3.759,0c-0.307,0 -0.602,0.123 -0.82,0.34c-0.217,0.217 -0.339,0.512 -0.339,0.82l-0,25.399c-0,0.64 0.519,1.16 1.159,1.16l3.759,-0c0.307,-0 0.602,-0.123 0.82,-0.34c0.217,-0.218 0.34,-0.513 0.34,-0.82l-0,-25.399Z" style="fill:#1b1b1b;fill-rule:nonzero;"/><path d="M113.364,37.022c0.367,-1.77 1.837,-2.705 3.607,-2.705c1.636,-0 3.139,1.068 3.44,2.705l-7.047,-0Zm12.69,2.872c0,-5.845 -3.439,-9.518 -9.384,-9.518c-3.001,-0 -5.519,0.996 -7.205,2.807c-1.446,1.553 -2.279,3.706 -2.279,6.343c-0,5.911 4.241,9.117 9.918,9.117c1.971,0 3.908,-0.467 5.477,-1.436c1.204,-0.743 2.192,-1.78 2.798,-3.128c0.131,-0.286 0.108,-0.62 -0.062,-0.885c-0.17,-0.265 -0.463,-0.425 -0.778,-0.425c-1.282,-0.003 -3.186,-0.003 -4.074,-0.003c-0.29,-0 -0.564,0.136 -0.74,0.368c-0.641,0.863 -1.505,1.201 -2.654,1.201c-2.505,0 -3.807,-1.336 -3.807,-3.807l12.156,0c0.168,0 0.33,-0.067 0.449,-0.186c0.118,-0.119 0.185,-0.28 0.185,-0.448c0,-0 0,-0 0,-0Z" style="fill:#1b1b1b;fill-rule:nonzero;"/><path d="M134.329,32.103c-0,-0.307 -0.123,-0.602 -0.34,-0.82c-0.218,-0.217 -0.512,-0.339 -0.82,-0.339l-3.759,-0c-0.307,-0 -0.602,0.122 -0.82,0.339c-0.217,0.218 -0.339,0.513 -0.339,0.82l-0,14.813c-0,0.307 0.122,0.602 0.339,0.82c0.218,0.217 0.513,0.34 0.82,0.34l3.759,-0c0.308,-0 0.602,-0.123 0.82,-0.34c0.217,-0.218 0.34,-0.513 0.34,-0.82l-0,-14.813Zm-3.039,-11.145c-1.871,0 -3.407,1.537 -3.407,3.407c0,1.87 1.536,3.406 3.407,3.406c1.87,0 3.406,-1.536 3.406,-3.406c-0,-1.87 -1.536,-3.407 -3.406,-3.407Z" style="fill:#1b1b1b;fill-rule:nonzero;"/><path d="M144.974,30.376c-4.876,-0 -9.132,3.306 -9.132,9.15c0,5.844 4.286,9.117 9.132,9.117c4.876,0 9.132,-3.306 9.132,-9.117c-0,-5.844 -4.256,-9.15 -9.132,-9.15Zm0,5.276c2.187,0 3.458,1.77 3.458,3.874c-0,2.171 -1.271,3.841 -3.458,3.841c-2.187,-0 -3.458,-1.67 -3.458,-3.841c0,-2.104 1.271,-3.874 3.458,-3.874Z" style="fill:#1b1b1b;fill-rule:nonzero;"/><path d="M168.523,32.387c0.125,-0.238 0.141,-0.518 0.044,-0.768c-0.098,-0.25 -0.299,-0.446 -0.551,-0.537c-1.494,-0.505 -3.076,-0.706 -4.658,-0.706c-3.741,-0 -7.548,1.87 -7.548,6.078c0,3.072 1.904,4.007 3.807,4.508c1.904,0.501 3.807,0.568 3.807,1.904c0,0.935 -1.135,1.302 -1.903,1.302c-1.208,0 -2.783,-0.561 -3.996,-1.232c-0.219,-0.122 -0.478,-0.15 -0.717,-0.077c-0.24,0.072 -0.44,0.237 -0.555,0.459c-0.395,0.756 -0.955,1.835 -1.334,2.563c-0.235,0.453 -0.06,1.011 0.392,1.249c1.878,0.979 3.981,1.513 6.11,1.513c3.974,0 8.081,-1.87 8.081,-6.378c0,-3.173 -2.137,-4.509 -4.976,-5.076c-0.835,-0.167 -2.738,-0.334 -2.738,-1.503c-0,-0.868 1.202,-1.169 1.903,-1.169c0.776,-0 1.702,0.188 2.511,0.492c0.438,0.176 0.938,-0.007 1.157,-0.425c0.34,-0.629 0.812,-1.528 1.164,-2.197Z" style="fill:#1b1b1b;fill-rule:nonzero;"/></g><g id="icon"><path d="M67.212,24.358l0.393,-0.128c0.488,-0.158 1.024,-0.036 1.394,0.32c0.37,0.356 0.515,0.886 0.376,1.381c-1.3,4.614 -4.022,14.281 -4.946,17.564c-0.183,0.647 -0.802,1.072 -1.472,1.008c-5.219,-0.499 -26.8,-2.559 -37.903,-3.619c-0.656,-0.063 -1.178,-0.578 -1.251,-1.233c-0.072,-0.656 0.326,-1.272 0.953,-1.476l0.692,-0.225l35.786,3.417c0.67,0.064 1.29,-0.36 1.472,-1.008l4.506,-16.001Z" style="fill:#c832b3;"/><path d="M70.218,30.353l0.393,-0.128c0.488,-0.159 1.024,-0.036 1.394,0.319c0.371,0.356 0.515,0.887 0.376,1.381c-1.299,4.614 -4.021,14.281 -4.946,17.564c-0.182,0.648 -0.802,1.072 -1.472,1.008c-5.219,-0.498 -26.8,-2.559 -37.903,-3.619c-0.656,-0.063 -1.178,-0.578 -1.25,-1.233c-0.073,-0.655 0.325,-1.272 0.952,-1.476l0.692,-0.225l35.787,3.417c0.669,0.064 1.289,-0.36 1.471,-1.008l4.506,-16Z" style="fill:#7932b3;"/><path d="M61.132,37.836c-0.183,0.648 -0.802,1.072 -1.472,1.008c-5.219,-0.498 -26.8,-2.559 -37.903,-3.619c-0.656,-0.063 -1.179,-0.578 -1.251,-1.233c-0.072,-0.655 0.326,-1.271 0.953,-1.475c11.475,-3.735 35.152,-11.441 42.848,-13.945c0.489,-0.159 1.025,-0.036 1.395,0.319c0.37,0.356 0.514,0.887 0.375,1.381c-1.299,4.614 -4.021,14.281 -4.945,17.564Z" style="fill:#ff32b3;"/></g></g></svg>